<svg xmlns="http://www.w3.org/2000/svg" width="116.837" height="116.837" viewBox="0 0 116.837 116.837">
  <g id="prepare_illustration" data-name="prepare illustration" transform="translate(-138.763 -4031.762)">
    <path id="Path_2516" data-name="Path 2516" d="M114.064,287.625a7.526,7.526,0,0,1-10.433,10.433l-2.08,3.143a11.3,11.3,0,0,0,15.656-15.658Zm0,0" transform="translate(61.133 3813.482)" fill="#35c69f"/>
    <path id="Path_2517" data-name="Path 2517" d="M91.307,267.769a7.489,7.489,0,0,1,4.148,1.253l2.082-3.141a11.3,11.3,0,0,0-15.656,15.658l3.143-2.08a7.528,7.528,0,0,1,6.283-11.69Zm0,0" transform="translate(77.607 3829.95)" fill="#35c69f"/>
    <path id="Path_2518" data-name="Path 2518" d="M288,336v11.307h7.538v-3.769h-3.769V336Zm0,0" transform="translate(-81.396 3774.91)" fill="#906eb1"/>
    <path id="Path_2519" data-name="Path 2519" d="M253.43,288a20.769,20.769,0,0,0-13.118,4.681l2.39,2.918a16.969,16.969,0,0,1,8.844-3.711v3.65h3.769V291.88a16.983,16.983,0,0,1,14.964,14.964h-3.658v3.769h3.65a16.975,16.975,0,0,1-3.711,8.845l2.916,2.388A20.725,20.725,0,0,0,253.43,288Zm0,0" transform="translate(-44.942 3811.604)" fill="#906eb1"/>
    <path id="Path_2520" data-name="Path 2520" d="M230.614,350.272v-3.65h-3.769v3.658a16.983,16.983,0,0,1-14.964-14.964h3.658v-3.769h-3.65A16.975,16.975,0,0,1,215.6,322.7l-2.916-2.388a20.726,20.726,0,0,0,29.164,29.166l-2.39-2.918A16.964,16.964,0,0,1,230.614,350.272Zm0,0" transform="translate(-20.241 3786.903)" fill="#906eb1"/>
    <path id="Path_2521" data-name="Path 2521" d="M105.531,147.841h-3.769V95.076H90.455v35.5a28.418,28.418,0,0,0-3.769-3.407V104.5H75.379v17.529a28.348,28.348,0,0,0-3.769-.475v-7.632H60.3v9.187a28.124,28.124,0,0,0-5.384,2.584,26.054,26.054,0,0,0-1.3-3.064l2.979-4.173L46.347,108.2l-4.175,2.981a26.24,26.24,0,0,0-3.927-1.62L37.4,104.5H22.9l-.842,5.064a26.24,26.24,0,0,0-3.927,1.62L13.959,108.2,3.708,118.454l2.979,4.173a25.9,25.9,0,0,0-1.622,3.927L0,127.4v14.5l5.064.844a26.09,26.09,0,0,0,1.622,3.927l-2.979,4.172L13.956,161.1l4.175-2.981a26.242,26.242,0,0,0,3.927,1.62L22.9,164.8H37.4l.842-5.064a26.24,26.24,0,0,0,3.927-1.62l.754.538A28.236,28.236,0,0,0,97.9,151.61h18.94V80H105.531Zm-11.307-49h3.769v49h-.1a28.049,28.049,0,0,0-3.673-12.157Zm-15.076,9.422h3.769v16.478a28.033,28.033,0,0,0-3.769-1.636Zm-15.076,9.422h3.769v3.865a28.2,28.2,0,0,0-3.769.476Zm-22.7,36.574a22.423,22.423,0,0,1-5.288,2.184l-1.167.317-.712,4.269H26.095l-.712-4.269-1.167-.317a22.456,22.456,0,0,1-5.288-2.184l-1.05-.6-3.514,2.512-5.738-5.736,2.512-3.518-.6-1.05a22.391,22.391,0,0,1-2.184-5.286l-.315-1.167-4.269-.71v-8.114l4.269-.71.317-1.167a22.45,22.45,0,0,1,2.184-5.286l.6-1.05-2.512-3.518,5.738-5.736,3.514,2.512,1.05-.6a22.423,22.423,0,0,1,5.288-2.184l1.167-.317.712-4.269h8.112l.712,4.269,1.167.317a22.455,22.455,0,0,1,5.288,2.184l1.05.6,3.514-2.512,5.738,5.736-2.512,3.518.6,1.05a22.416,22.416,0,0,1,1.931,4.544,28.6,28.6,0,0,0-3.066,3,18.918,18.918,0,1,0-7.173,18.7c0,.017,0,.034,0,.051a28.207,28.207,0,0,0,.36,4.283Zm3.807-18.5a28.121,28.121,0,0,0-3.1,8.077,15.056,15.056,0,1,1,3.143-9.187C45.227,135.025,45.206,135.392,45.18,135.759Zm24.545,38.464a24.5,24.5,0,1,1,24.5-24.5A24.527,24.527,0,0,1,69.726,174.224ZM109.3,83.769h3.769v64.072H109.3Zm0,0" transform="translate(138.763 3970.607)" fill="#f5f9ff"/>
    <path id="Path_2522" data-name="Path 2522" d="M105.531,0V3.769h4.05L96.248,14.435,90.455,8.642,81.57,17.527a5.563,5.563,0,0,0-2.422-.567,5.661,5.661,0,0,0-5.653,5.653,5.588,5.588,0,0,0,.707,2.679l-9.85,10.945a5.624,5.624,0,0,0-2.163-.433c-.036,0-.068.009-.1.011L54.506,15.608a5.644,5.644,0,1,0-9.149-3.114L29.909,22a5.59,5.59,0,0,0-8.833,2.5H10.96a5.653,5.653,0,1,0,0,3.769H21.078A5.639,5.639,0,0,0,31.908,25.2L47.357,15.69a5.585,5.585,0,0,0,3.524,1.27c.036,0,.068-.009.1-.011l7.577,20.207a5.666,5.666,0,1,0,8.572,1.623l9.85-10.945a5.647,5.647,0,0,0,7.817-5.22,5.563,5.563,0,0,0-.567-2.422l6.22-6.22,5.514,5.514,17.1-13.679v5.5h3.769V0ZM5.653,28.267a1.884,1.884,0,1,1,1.884-1.884A1.887,1.887,0,0,1,5.653,28.267Zm20.729,0a1.884,1.884,0,1,1,1.884-1.884A1.887,1.887,0,0,1,26.383,28.267ZM49,11.307a1.884,1.884,0,1,1,1.884,1.884A1.887,1.887,0,0,1,49,11.307ZM62.188,43.343a1.884,1.884,0,1,1,1.884-1.884A1.887,1.887,0,0,1,62.188,43.343ZM79.148,24.5a1.884,1.884,0,1,1,1.884-1.884A1.887,1.887,0,0,1,79.148,24.5Zm0,0" transform="translate(138.763 4031.762)" fill="#f5f9ff"/>
  </g>
</svg>
