<svg xmlns="http://www.w3.org/2000/svg" width="112.632" height="112.675" viewBox="0 0 112.632 112.675">
  <g id="search" transform="translate(-5.218 -5.141)">
    <path id="Path_1444" data-name="Path 1444" d="M327.148,318.454l-8.759,8.758-9.032-9.032,8.759-8.759Z" transform="translate(-239.621 -239.718)" fill="#d5d0bb"/>
    <path id="Path_1445" data-name="Path 1445" d="M356.648,356.713h0a11.99,11.99,0,0,1-16.923,0l-23.054-23.054,16.923-16.923,23.054,23.054A11.99,11.99,0,0,1,356.648,356.713Z" transform="translate(-242.293 -242.392)" fill="#906eb1"/>
    <path id="Path_1446" data-name="Path 1446" d="M70.468,12.016a41.243,41.243,0,0,0-58.2,0A40.784,40.784,0,0,0,12.053,70,41.152,41.152,0,1,0,70.468,12.016Z" transform="translate(5.153 5.141)" fill="#d5d0bb"/>
    <path id="Path_1447" data-name="Path 1447" d="M104.71,105.076a36.341,36.341,0,0,1-51.259-.245A35.826,35.826,0,0,1,53.7,53.817a36.159,36.159,0,1,1,51.014,51.259Z" transform="translate(-32.785 -33.184)" fill="#fff"/>
    <path id="Path_1448" data-name="Path 1448" d="M130.284,130.649a26.187,26.187,0,1,1,0-37.034A26.054,26.054,0,0,1,130.284,130.649Z" transform="translate(-65.471 -65.87)" fill="#c39ce8"/>
    <path id="Path_1449" data-name="Path 1449" d="M150.533,150.6a18.209,18.209,0,1,1,0-25.752A18.207,18.207,0,0,1,150.533,150.6Z" transform="translate(-91.361 -91.46)" fill="#906eb1"/>
    <g id="Group_7" data-name="Group 7" transform="translate(27.844 33.605)">
      <circle id="Ellipse_5" data-name="Ellipse 5" cx="3.924" cy="3.924" r="3.924" fill="#fff"/>
      <circle id="Ellipse_6" data-name="Ellipse 6" cx="1.962" cy="1.962" r="1.962" transform="translate(7.796 5.734)" fill="#fff"/>
    </g>
    <path id="Path_1450" data-name="Path 1450" d="M332.794,316.735l-17.168,16.678,7.112,7.112L339.661,323.6Z" transform="translate(-241.493 -242.391)" fill="#c39ce8"/>
  </g>
</svg>
